<svg width="41" height="41" viewBox="0 0 41 41" fill="none" xmlns="http://www.w3.org/2000/svg">
<path d="M6.14491 17.6814C6.23786 16.1942 6.98925 14.826 8.19432 13.9496L17.5591 7.13881C19.3124 5.86371 21.6876 5.86371 23.4409 7.13881L32.8057 13.9496C34.0107 14.826 34.7621 16.1942 34.8551 17.6814L35.668 30.6881C35.8479 33.5666 33.5618 36 30.6777 36H10.3223C7.43815 36 5.15209 33.5666 5.33199 30.6881L6.14491 17.6814Z" fill="#00B533" fill-opacity="0.2"/>
<path d="M15.6667 35V23.9684C15.6667 22.953 16.5322 22.1299 17.6 22.1299H23.4C24.4678 22.1299 25.3333 22.953 25.3333 23.9684V35M19.3796 6.34022L6.81292 14.8386C6.30291 15.1835 6 15.7418 6 16.337V32.2421C6 33.7653 7.29837 35 8.9 35H32.1C33.7016 35 35 33.7652 35 32.2421V16.337C35 15.7418 34.6971 15.1835 34.1871 14.8386L21.6204 6.34022C20.9496 5.88659 20.0504 5.88659 19.3796 6.34022Z" stroke="#00B533" stroke-width="2" stroke-linecap="round"/>
</svg>
