<svg width="41" height="41" viewBox="0 0 41 41" fill="none" xmlns="http://www.w3.org/2000/svg">
<path d="M35.875 35.0253V17.687C35.875 17.1347 35.4273 16.687 34.875 16.687H26.5256C25.9991 16.687 25.5676 17.094 25.5285 17.6105V5.97467C25.5285 5.42239 25.0808 4.97467 24.5285 4.97467H16.179C15.6267 4.97467 15.179 5.42239 15.179 5.97467V26.7753C15.179 26.2231 14.7313 25.7753 14.179 25.7753H6.125C5.57272 25.7753 5.125 26.2231 5.125 26.7753V35.0253C5.125 35.5776 5.57272 36.0253 6.125 36.0253H15.179H25.5285H34.875C35.4273 36.0253 35.875 35.5776 35.875 35.0253Z" fill="#00B533" fill-opacity="0.2"/>
<path d="M25.5285 36.0253V5.97467C25.5285 5.42239 25.0808 4.97467 24.5285 4.97467H16.179C15.6267 4.97467 15.179 5.42239 15.179 5.97467V36.0253M25.5285 36.0253L25.5256 17.6872C25.5256 17.1348 25.9733 16.687 26.5256 16.687H34.875C35.4273 16.687 35.875 17.1347 35.875 17.687V35.0253C35.875 35.5776 35.4273 36.0253 34.875 36.0253H25.5285ZM25.5285 36.0253H15.179M15.179 36.0253V26.7753C15.179 26.2231 14.7313 25.7753 14.179 25.7753H6.125C5.57272 25.7753 5.125 26.2231 5.125 26.7753V35.0253C5.125 35.5776 5.57272 36.0253 6.125 36.0253H15.179Z" stroke="#00B533" stroke-width="2" stroke-linecap="round" stroke-linejoin="round"/>
</svg>
