<svg width="41" height="41" viewBox="0 0 41 41" fill="none" xmlns="http://www.w3.org/2000/svg">
<circle cx="20.5" cy="20.5" r="15.5" fill="#00B533" fill-opacity="0.2"/>
<path fill-rule="evenodd" clip-rule="evenodd" d="M36.8 20.4C36.8 29.4575 29.4575 36.8 20.4 36.8C11.3425 36.8 4 29.4575 4 20.4C4 11.3425 11.3425 4 20.4 4C29.4575 4 36.8 11.3425 36.8 20.4ZM26.2747 14.8103C26.2747 11.6814 23.6334 9.125 20.4005 9.125C17.1677 9.125 14.5263 11.6814 14.5263 14.8103C14.5263 17.9391 17.1677 20.4955 20.4005 20.4955C23.6333 20.4955 26.2747 17.9391 26.2747 14.8103Z" stroke="#00B533" stroke-width="2"/>
<path d="M27.9 34V30C27.9 27.7909 26.1092 26 23.9 26H16.9C14.6909 26 12.9 27.7909 12.9 30V34" stroke="#00B533" stroke-width="2" stroke-linecap="round"/>
</svg>
